<?xml version="1.0" encoding="UTF-8"?><svg id="_图层_1" xmlns="http://www.w3.org/2000/svg" viewBox="0 0 934.48 893.63"><defs><style>.cls-1{fill:#fff;}</style></defs><path class="cls-1" d="m.34,343.81C105.08,139.11,247-9.29,512.42,11.52c92.8,7.16,127.59,46.4,126.57,131.69-.68,55.27-13.31,78.47-78.13,60.39-161.03-45.03-270.54,19.79-334.68,162.05-49.47,109.51-8.19,205.72,77.44,274.63,125.55,100.98,257.24,80.86,378.35-20.13,57.66,211.52,2.73,277.71-225.51,273.27C225.85,888.99,103.03,742.29,0,570v-226.19h.34Z"/><path class="cls-1" d="m805.48,249.31h66.19c4.44,142.61,1.36,285.21-22.18,426.45l-.68,7.16c-89.73-137.83-23.2-289.65-43.33-433.96v.34Z"/><path class="cls-1" d="m849.49,675.76c23.54-141.24,26.61-283.85,22.18-426.45,27.29-2.05,61.41-7.16,61.07,30.7-1.71,136.81,22.18,279.07-83.24,395.75Z"/><path class="cls-1" d="m762.15,75.66c0-47.42,8.19-81.88,64.14-74.71,53.9,7.16,96.89,31.73,106.78,85.29,9.89,54.24-34.46,56.29-75.06,58.34-55.27,2.39-102.01-4.44-95.53-68.91h-.34Z"/><path class="cls-1" d="m805.48,249.31c20.13,143.97-46.4,296.13,43.33,433.96-7.16,33.43-30.02,55.61-85.63,89.38,27.29-185.59-50.15-356.85,42.3-523.34h0Z"/></svg>