<?xml version="1.0" encoding="utf-8"?>
<!-- Generator: $$$/GeneralStr/196=Adobe Illustrator 27.6.0, SVG Export Plug-In . SVG Version: 6.00 Build 0)  -->
<svg version="1.1" xmlns="http://www.w3.org/2000/svg" xmlns:xlink="http://www.w3.org/1999/xlink" x="0px" y="0px"
	 viewBox="0 0 1024 1024" style="enable-background:new 0 0 1024 1024;" xml:space="preserve">
<style type="text/css">
	.st0{fill:none;}
	.st1{fill:#FFFFFF;}
</style>
<g id="图层_1">
	<path class="st0" d="M0,0h1024v1024H0V0z"/>
</g>
<g id="图层_2">
	<path class="st1" d="M512,285.8h89.3l83.3,119.1L774,285.8h95.3l-125,172.7l136.9,196.5h-89.3l-95.3-131l-107.2,131h-95.3
		l136.9-184.6L512,285.8L512,285.8z"/>
	<path class="st1" d="M363.2,285.8c-71.4,0-184.6,65.5-184.6,166.7v351.3H250V660.8h154.8c0,0,148.8-41.7,148.8-190.5
		S434.6,285.8,363.2,285.8L363.2,285.8z M476.3,476.3c-6,89.3-89.3,107.2-89.3,107.2H250V446.5c0,0,11.9-77.4,101.2-89.3
		C399.9,350.7,482.2,387,476.3,476.3L476.3,476.3z"/>
</g>
</svg>
