<svg viewBox="0 0 1753 1024" version="1.1" xmlns="http://www.w3.org/2000/svg" data-spm-anchor-id="a313x.search_index.i1.i0.36f23a81FlaAXP"><path d="M876.75215 245.905142c-95.551475 187.040459-138.497822 455.662394-234.298021 609.166565-128.921947 206.606748-387.346198 211.829952-534.134821 79.923316C1.03635 838.573014-0.953442 734.523468 0.165816 600.171046 1.160712 482.110048 8.332254 355.758248 62.595544 257.885349 120.879871 152.716545 253.864311 5.969376 542.508529 2.155608c15.296527 1.616706 223.893067 27.64982 334.243621 243.749534zM1211.037225 2.155608c-3.399228 0-6.757002-0.082908-10.197684-0.082908l10.197684 0.082908z" fill="#FE328B"></path><path d="M542.508529 2.155608c15.172165 1.616706 223.851613 27.566912 334.285075 243.749534C987.185612 29.763974 1195.86506 3.772314 1211.037225 2.155608c-222.359269-2.860326-446.418152-2.860326-668.528696 0z" fill="#984BC1"></path><path d="M876.75215 245.905142c95.551475 187.040459 138.497822 455.662394 234.298022 609.166565 128.921947 206.606748 387.346198 211.829952 534.13482 79.923316 107.282958-96.42201 109.314204-200.430101 108.194946-334.782523-0.994896-118.060999-8.166438-244.412798-62.429727-342.285697C1632.665883 152.716545 1499.681444 5.969376 1211.037225 2.155608c-15.337981 1.616706-223.893067 27.64982-334.285075 243.749534zM542.508529 2.155608c3.399228 0 6.757002-0.082908 10.197685-0.082908l-10.197685 0.082908z" fill="#2EDBE2"></path></svg>