<svg viewBox="0 0 1024 1024" version="1.1" xmlns="http://www.w3.org/2000/svg"><path d="M914.867607 499.447213a392.159312 392.159312 0 0 0-784.318623 0c0 53.2853 24.388272 78.903232 63.020114 101.549485s111.386771 18.854798 160.778145 63.225057 52.875413 116.612829 63.122586 151.658161A113.948564 113.948564 0 0 0 522.605824 891.606525a392.05684 392.05684 0 0 0 392.261783-392.159312z m-237.017112 33.508256a355.37196 355.37196 0 0 1-74.701891 61.483038 400.459522 400.459522 0 0 1-100.524767 42.423296l-3.893926 0.922246a65.376964 65.376964 0 0 1-77.673572-50.108676A504.775743 504.775743 0 0 1 409.886921 481.309717a258.843591 258.843591 0 0 1 17.317722-98.577805 65.581907 65.581907 0 0 1 68.963475-39.963974 231.893525 231.893525 0 0 1 90.892424 34.328029 707.054938 707.054938 0 0 1 85.154008 61.483038l2.254378 2.049435a65.376964 65.376964 0 0 1 3.381567 92.327029z" fill="#FFFFFF" data-spm-anchor-id="a313x.search_index.i1.i0.ac373a81vT2Xsb"></path></svg>