<svg viewBox="0 0 1024 1024" version="1.1" xmlns="http://www.w3.org/2000/svg"><path d="M157.514989 0.00003h708.969952A157.414989 157.414989 0 0 1 1023.99993 156.411019v711.177952a157.414989 157.414989 0 0 1-157.514989 156.409989h-708.969952A157.414989 157.414989 0 0 1 0 867.589971V156.410019A157.414989 157.414989 0 0 1 157.514989 0.00003z" fill="#FC4514" data-spm-anchor-id="a313x.search_index.i1.i0.1a773a81bFIJpJ"></path><path d="M434.79797 759.566978a61.740996 61.740996 0 0 1-62.141995 62.142996h-53.207997a64.451996 64.451996 0 0 0 53.207997-62.142996V267.645012a30.117998 30.117998 0 0 0-30.117998-30.116998h-92.359994a30.117998 30.117998 0 0 0-30.117998 30.116998V729.44998a30.117998 30.117998 0 0 0 30.116998 30.117998h30.117998a31.121998 31.121998 0 1 1 0 62.142996h-62.041996a61.740996 61.740996 0 0 1-62.142996-62.142996V236.022014a62.945996 62.945996 0 0 1 62.142996-62.142996h154.40299a64.451996 64.451996 0 0 1 62.141995 63.849996zM867.889941 172.072018a61.740996 61.740996 0 0 1-62.142996 62.142996H589.20196c-17.769999 0-30.117998 12.448999-30.117998 33.731998v120.469991h305.291979a62.844996 62.844996 0 0 1-49.693997 60.235996v341.332977a61.740996 61.740996 0 0 1-61.739995 61.941996V448.953999H555.469962v342.637977a61.841996 61.841996 0 0 1-62.142996 61.740996V234.215014a64.551996 64.551996 0 0 1 62.142996-63.547996h312.419979z" fill="#FFFFFF"></path></svg>