<svg viewBox="0 0 1024 1024" version="1.1" xmlns="http://www.w3.org/2000/svg"><path d="M379.632 558.208h162.64c0-38.848-18-61.6-18-61.6H383.072c3.36-70.336 6.36-160.608 7.456-194.152h134.28s-0.744-57.68-15.656-57.68h-236.08s14.208-75.44 33.136-108.752c0 0-70.48-3.864-94.528 91.552-24.048 95.416-60.096 153.096-63.896 163.64-3.832 10.536 20.744 4.992 31.12 0 10.392-5 57.392-22.2 71.056-88.76h72.968c0.992 42.2 3.872 171.48 2.984 194.16H175.64c-21.32 15.536-28.4 61.592-28.4 61.592h171.744c-7.176 48.144-19.752 110.216-37.336 143.104-27.848 52.184-42.608 99.88-143.12 181.944 0 0-16.4 12.208 34.4 7.776 50.832-4.44 98.904-17.76 132.24-85.432a884.176 884.176 0 0 0 49.216-125.096l-0.048 0.176 141.536 165.432s18.584-44.4 4.92-93.2L395.88 633.616l-35.528 26.688-0.024 0.12c9.864-35.104 16.944-69.808 19.152-100l0.176-2.216h-0.024zM576.16 232.56v572.48h59.28l24.288 68.928 102.752-68.928H892v-572.48H576.16z m254.816 510.912h-67.328l-83.944 56.296-19.848-56.296h-20.944V296.456h192.04v447.024h0.024z" fill="#FFFFFF" data-spm-anchor-id="a313x.search_index.i1.i0.1d2e3a81ILA1tM"></path></svg>