<svg viewBox="0 0 1024 1024" version="1.1" xmlns="http://www.w3.org/2000/svg"><path d="M0 0h1024v1024H0z" fill="#0A9B4B" data-spm-anchor-id="a313x.search_index.i1.i0.5ce93a81YDmHUX"></path><path d="M363.162791 285.767442c-71.44186 0-184.55814 65.488372-184.55814 166.697674v351.255814h71.441861v-142.883721h154.790697s148.837209-41.674419 148.83721-190.511628-119.069767-184.55814-190.511628-184.558139z m113.116279 190.511628c-5.953488 89.302326-89.302326 107.162791-89.302326 107.16279H250.046512V446.511628s11.906977-77.395349 101.209302-89.302326c48.64-6.489302 130.976744 29.767442 125.023256 119.069768z" fill="#FFFFFF"></path><path d="M512 285.767442h89.302326l83.348837 119.069767 89.302325-119.069767h95.255814l-125.023255 172.651163 136.930232 196.465116h-89.302326l-95.255813-130.976744-107.162791 130.976744H494.139535l136.930232-184.55814-119.069767-184.558139z" fill="#FFFFFF"></path></svg>